<?xml version="1.0" encoding="utf-8"?>
<!-- Generator: Adobe Illustrator 16.0.0, SVG Export Plug-In . SVG Version: 6.00 Build 0)  -->
<!DOCTYPE svg PUBLIC "-//W3C//DTD SVG 1.1//EN" "http://www.w3.org/Graphics/SVG/1.1/DTD/svg11.dtd">
<svg version="1.1" id="Layer_1" xmlns="http://www.w3.org/2000/svg" xmlns:xlink="http://www.w3.org/1999/xlink" x="0px" y="0px"
	 width="398px" height="66px" viewBox="0 0 398 66" enable-background="new 0 0 398 66" xml:space="preserve">
<path fill-rule="evenodd" clip-rule="evenodd" fill="#F05A2B" d="M52,0c0,17.134,0,34.268,0,51.986c-4.612,0-9.004,0-13.709,0
	c0,4.521,0,8.47,0,13.867C32.787,60.742,28.161,56.446,23.373,52C15.652,52,7.826,52,0,52C0,34.667,0,17.333,0,0
	C17.333,0,34.667,0,52,0z M38.438,9.228c0,11.58,0,22.815,0,33.976c1.781,0.566,3.213,0.738,4.883-0.186c0-11.145,0-22.396,0-33.562
	C41.68,8.617,40.217,8.841,38.438,9.228z M33.404,43.059c0-8.728,0-17.115,0-25.466c-2.002-0.313-3.642-0.844-4.81,0.365
	c0,8.647,0,17.033,0,25.339C30.447,43.716,31.898,43.974,33.404,43.059z M18.697,26.545c0,5.464,0,11.008,0,16.798
	c1.852,0.097,3.436,0.766,4.853-0.42c0-5.633,0-11.167,0-16.793C21.75,26.107,20.282,25.668,18.697,26.545z M8.6,35.146
	c0,1.409-0.058,2.695,0.015,3.974c0.082,1.422-0.43,2.963,0.742,4.242c1.408,0.363,2.822,0.592,4.177-0.14
	c0.779-1.274,0.458-2.615,0.439-3.886c-0.021-1.428,0.39-2.923-0.525-4.534C12.139,34.616,10.725,34.404,8.6,35.146z"/>
<path fill-rule="evenodd" clip-rule="evenodd" fill="#2A2627" d="M249,66c0.438-5.075,4.004-8.984,5.281-14.363
	c-2.24-5.553-4.674-11.539-7.072-17.539c-2.383-5.963-4.73-11.94-7.238-18.279c3.73,0,6.986,0,10.576,0
	c2.915,8.23,5.838,16.483,8.92,25.184c3.566-8.68,6.961-16.941,10.354-25.197c3.438,0,6.518,0,10.16,0
	c-4.94,11.476-9.818,22.512-14.438,33.656C263.275,54.934,260.071,60.051,259,66C255.666,66,252.334,66,249,66z"/>
<path fill-rule="evenodd" clip-rule="evenodd" fill="#2A2627" d="M398,44c-8.251,10.446-23.53,11.188-32.579,1.375
	c1.253-1.844,2.54-3.738,3.995-5.883c5.143,2.836,10.223,5.948,16.34,4.067c1.777-0.546,3.18-1.849,3.159-4.204
	c-1.104-3.032-3.967-3.055-6.552-3.234c-3.364-0.234-6.617-0.827-9.676-2.206c-3.599-1.622-5.855-4.333-6.107-8.42
	c-0.261-4.209,1.428-7.389,5.034-9.613c7.041-4.346,17.669-3.435,24.443,2.357c-1.413,1.747-2.839,3.51-4.52,5.588
	c-5.001-2.965-10.178-4.516-15.365-1.337c-1.195,3.625,0.674,4.835,3.185,5.397c1.942,0.436,3.949,0.657,5.939,0.792
	c5.449,0.371,9.754,2.65,12.703,7.32C398,38.667,398,41.333,398,44z"/>
<path fill-rule="evenodd" clip-rule="evenodd" fill="#2A2627" d="M76,0c0,14.131,0,28.263,0,42.915c7.087,0,13.977,0,21.026,0
	c0,3.259,0,5.994,0,8.948c-10.297,0-20.38,0-31.026,0C66,34.515,66,17.258,66,0C69.333,0,72.667,0,76,0z"/>
<path fill-rule="evenodd" clip-rule="evenodd" fill="#2A2627" d="M234,0c0,17.212,0,34.423,0,51.85c-2.854,0-5.585,0-9,0
	c0-17.437,0-34.643,0-51.85C228,0,231,0,234,0z"/>
<path fill-rule="evenodd" clip-rule="evenodd" fill="#2A2627" d="M322,0c2.016,2.935,3.932,6.035,0.662,9.163
	c-2.176,2.082-5.012,2.066-7.221,0.006C312.104,6.056,314.122,2.963,316,0C318,0,320,0,322,0z"/>
<path fill-rule="evenodd" clip-rule="evenodd" fill="#2A2627" d="M209.312,14.567c-0.316,1.333-0.589,2.479-0.892,3.752
	c-8.25-6.329-18.767-6.091-25.298,0.298c-6.259,6.121-7.144,18.85-1.82,26.369c2.524,3.565,6.043,5.643,10.231,6.617
	c6.373,1.482,12.038-0.121,17.171-4.744c0.193,2.062,0.325,3.481,0.488,5.235c2.981-0.289,5.74,0.376,8.486-0.465
	c0-12.399,0-24.498,0-37.062C214.527,14.567,211.93,14.567,209.312,14.567z M197.905,43.807
	c-6.291,0.047-10.917-4.694-10.891-11.163c0.026-6.564,4.488-10.937,11.048-10.828c6.206,0.104,10.368,4.533,10.33,10.996
	C208.354,39.166,203.973,43.761,197.905,43.807z"/>
<path fill-rule="evenodd" clip-rule="evenodd" fill="#2A2627" d="M118.916,13.992c-11.008,0.021-18.857,7.816-18.95,18.818
	c-0.097,11.391,7.588,19.218,18.913,19.263c11.424,0.046,19.195-7.621,19.214-18.954C138.11,21.929,130.132,13.971,118.916,13.992z
	 M119.083,43.81c-5.72,0.051-10.031-4.6-10.001-10.788c0.03-6.178,4.444-10.904,10.061-10.772c5.533,0.13,9.913,5.111,9.79,11.135
	C128.811,39.357,124.651,43.761,119.083,43.81z"/>
<path fill-rule="evenodd" clip-rule="evenodd" fill="#2A2627" d="M309.061,50.564c-11.201,5.404-20.142,0.26-20.559-11.666
	c-0.174-4.942-0.029-9.896-0.029-14.58c-2.219-1.545-4.399-0.341-6.302-1.32c-0.89-2.18-0.185-4.459-0.407-6.997
	c2.216-0.211,4.134-0.393,6.072-0.577c1.416-2.907-0.049-6.039,1.119-9.172c2.617-0.297,5.36-0.607,8.148-0.924
	c1.449,3.342-0.172,6.801,1.252,10.354c2.979,0,6.072,0,9.169,0c0.431,2.729,0.552,5.005-0.107,7.751c-3.062,0-6.155,0-9.633,0
	c0,5.906-0.265,11.358,0.091,16.771c0.25,3.825,1.86,4.326,8.752,3.672C307.932,45.911,308.387,48.293,309.061,50.564z"/>
<path fill-rule="evenodd" clip-rule="evenodd" fill="#2A2627" d="M174.663,18.698c-1.305,2.317-3.257,4.069-5.24,5.746
	c-7.609-3.425-12.41-2.957-15.843,1.486c-2.994,3.875-2.922,10.241,0.158,13.926c3.452,4.13,9.2,4.501,16.26,0.838
	c1.63,1.86,3.349,3.82,5.138,5.861c-4.274,6.965-19.569,7.593-27,0.948c-7.385-6.603-8.011-20.534-1.335-28.137
	C153.147,12.139,168.308,10.998,174.663,18.698z"/>
<path fill-rule="evenodd" clip-rule="evenodd" fill="#2A2627" d="M357.315,40.808c2.087,1.556,3.991,3.352,5.593,5.438
	c-5.709,7.782-21.256,7.701-28.232,0.435c-6.878-7.166-6.748-21.361,0.341-28.192c7.203-6.941,22.14-6.779,27.083,0.665
	c-1.625,1.71-3.31,3.483-5.228,5.504c-3.392-1.826-6.81-3.562-10.745-2.22c-2.256,0.77-4.178,1.97-5.526,4.021
	c-2.588,3.935-2.322,10.121,0.636,13.52C344.733,43.996,350.131,44.293,357.315,40.808z"/>
<path fill-rule="evenodd" clip-rule="evenodd" fill="#2A2627" d="M323.42,51.938c-2.922,0-5.557,0-8.573,0
	c0-12.082,0-24.08,0-36.372c2.815,0,5.539,0,8.573,0C323.42,27.61,323.42,39.495,323.42,51.938z"/>
</svg>
